<svg width="179" height="42" viewBox="0 0 179 42" fill="none" xmlns="http://www.w3.org/2000/svg">
<path d="M20.2245 22.7693C20.2245 22.7693 23.8161 22.2682 25.7371 21.9417C25.7371 21.9417 47.0777 17.4769 43.9911 5.17978C43.9911 5.17978 40.0199 -6.45673 15.2054 8.9308C15.2054 8.9308 -6.5186 22.7124 3.62585 36.1143C3.62585 36.1143 9.46879 44.277 21.6027 40.5829C26.6399 38.9911 31.0794 35.9159 34.3402 31.7596C34.3402 31.7596 20.6725 40.9132 13.1667 33.8553C13.1667 33.8553 9.62445 30.4384 12.5061 26.1331C12.5061 26.1331 14.1576 23.6539 20.2245 22.7693ZM25.2094 8.96498C34.0896 3.57763 36.9143 6.07198 36.9143 6.07198C39.7427 8.86626 33.0607 13.855 33.0607 13.855C22.8441 21.805 15.9951 19.4435 15.9951 19.4435C16.8076 14.3903 25.2094 8.96498 25.2094 8.96498Z" fill="#2F765F"/>
<path d="M37.7385 20.19C37.7385 20.19 32.1461 20.0381 31.1362 24.8674C30.1453 29.5979 36.7741 32.6731 40.9656 30.2623V27.6313C40.9656 27.6313 37.9017 30.3382 34.9404 27.8249C34.9404 27.8249 32.8067 25.8545 34.9404 23.4664C34.9404 23.4664 37.0209 21.3859 39.9101 23.25C40.3249 23.5343 40.6653 23.9141 40.9025 24.3575C41.1397 24.8008 41.2668 25.2947 41.2731 25.7975V30.9305H44.1927V25.3685C44.1927 25.3685 43.9801 20.5203 37.7385 20.19Z" fill="#2F765F"/>
<path d="M56.4043 20.1895H50.3298C50.3298 20.1895 46.6851 20.2578 46.6851 22.9648C46.6851 25.6717 49.9046 26.0324 50.3298 26.1653C50.755 26.2981 54.8059 27.3574 54.1264 28.1585C54.1264 28.1585 53.9745 28.3407 53.367 28.3407H46.8483V30.8502H53.0443C53.0443 30.8502 56.8409 30.6946 57.0231 28.2762C57.2092 25.6983 54.8705 25.144 53.6328 24.7719C52.3951 24.3999 49.2364 23.6861 49.5173 22.923C49.5173 22.923 49.5477 22.6838 49.9273 22.6838H56.3815L56.4043 20.1895Z" fill="#2F765F"/>
<path d="M178.068 20.1973H171.994C171.994 20.1973 168.349 20.2656 168.349 22.9764C168.349 25.6871 171.569 26.0402 171.994 26.1731C172.419 26.306 176.47 27.3652 175.79 28.1663C175.79 28.1663 175.639 28.3485 175.031 28.3485H168.528V30.8581H174.72C174.72 30.8581 178.516 30.7024 178.702 28.284C178.888 25.7061 176.55 25.1518 175.312 24.7797C174.074 24.4077 170.916 23.6939 171.193 22.9308C171.193 22.9308 171.227 22.6916 171.607 22.6916H178.061L178.068 20.1973Z" fill="#2F765F"/>
<path d="M66.754 20.1895V26.8866C66.754 26.8866 66.5907 28.8153 64.3925 28.8153C63.8181 28.8577 63.2485 28.6849 62.7945 28.3305C62.3404 27.9761 62.0345 27.4655 61.9361 26.898V20.1895H58.9976V26.5373C58.9976 26.5373 58.9976 30.1023 62.908 30.8768V35.4327H65.9187V30.8616C66.9483 30.6829 67.8851 30.1558 68.5722 29.3685C69.2592 28.5812 69.6548 27.5816 69.6925 26.5373V20.1895H66.754Z" fill="#2F765F"/>
<path d="M147.458 20.1973V30.8543H150.469V25.8845C150.469 22.8473 152.546 22.5891 152.546 22.5891H154.793V20.1973H152.432C151.644 20.2074 150.88 20.4739 150.257 20.9566V20.1973H147.458Z" fill="#2F765F"/>
<path d="M101.267 25.8773C101.146 27.5364 99.5702 28.85 97.6302 28.85C95.7964 28.85 94.2816 27.6692 94.0272 26.1278L95.356 27.8249L101.176 24.9547L103.727 23.6942C103.389 22.9823 102.901 22.3517 102.296 21.8453C100.973 20.7557 99.3064 20.1693 97.5922 20.19C93.9475 20.19 90.9976 22.654 90.9976 25.6874C90.9976 28.7209 93.9475 31.1849 97.5922 31.1849C101.119 31.1849 103.993 28.8728 104.168 25.9646L101.267 25.8773ZM97.6302 22.5021C98.3763 22.4965 99.1089 22.7004 99.7449 23.0906L94.0007 25.8811V25.676C93.9893 23.922 95.6218 22.5021 97.6302 22.5021Z" fill="#2F765F"/>
<path d="M83.9983 20.2346C88.9642 20.7813 88.8845 24.7563 88.8845 24.7563V30.8688H86.0978V25.0221C86.0468 24.3441 85.7415 23.7104 85.243 23.248C84.7445 22.7856 84.0897 22.5287 83.4098 22.5287C82.7299 22.5287 82.0751 22.7856 81.5766 23.248C81.0781 23.7104 80.7728 24.3441 80.7218 25.0221V30.8688H77.9351V24.7563C77.9351 24.7563 77.8554 20.7813 82.8251 20.2346C83.2146 20.1848 83.6088 20.1848 83.9983 20.2346V20.2346Z" fill="#2F765F"/>
<path d="M110.95 28.4127C109.211 28.4127 109.268 26.6169 109.268 26.6169V22.7444H113.292V20.2766H109.268V20.0488H106.326V27.2623C106.326 27.2623 106.383 30.8577 110.722 30.8577L113.323 30.8881V28.4317L110.95 28.4127Z" fill="#2F765F"/>
<path d="M109.836 16.1362C109.836 16.5544 109.712 16.9633 109.48 17.311C109.248 17.6588 108.917 17.9298 108.531 18.0899C108.144 18.25 107.719 18.2918 107.309 18.2102C106.899 18.1286 106.522 17.9272 106.226 17.6315C105.931 17.3358 105.729 16.9589 105.648 16.5487C105.566 16.1385 105.608 15.7133 105.768 15.3269C105.928 14.9405 106.199 14.6102 106.547 14.3779C106.895 14.1455 107.303 14.0215 107.722 14.0215C107.999 14.021 108.275 14.0753 108.531 14.1814C108.788 14.2875 109.022 14.4433 109.218 14.6398C109.415 14.8362 109.57 15.0695 109.676 15.3263C109.782 15.5831 109.837 15.8583 109.836 16.1362Z" fill="#FBC600"/>
<path d="M128.856 26.6173C128.869 26.8819 128.826 27.1463 128.731 27.3935C128.635 27.6407 128.489 27.8651 128.302 28.0524C127.897 28.4024 127.381 28.595 126.846 28.595C126.311 28.595 125.794 28.4024 125.39 28.0524C125.205 27.8623 125.061 27.636 124.968 27.3878C124.874 27.1395 124.833 26.8746 124.847 26.6097V20.1973H122.189V26.6173C122.204 26.882 122.162 27.1468 122.068 27.3946C121.974 27.6425 121.829 27.8678 121.643 28.0562C121.447 28.2415 121.216 28.3855 120.964 28.4794C120.711 28.5734 120.442 28.6154 120.173 28.6029C119.906 28.6157 119.64 28.5739 119.39 28.4798C119.14 28.3858 118.911 28.2416 118.719 28.0562C118.534 27.8661 118.39 27.6398 118.297 27.3916C118.204 27.1433 118.162 26.8784 118.176 26.6135V20.1973H115.519V26.3022C115.488 26.9337 115.585 27.5648 115.804 28.1578C116.024 28.7508 116.36 29.2935 116.794 29.7533C117.24 30.1875 117.771 30.5257 118.352 30.7471C118.934 30.9685 119.555 31.0682 120.177 31.0403C120.861 31.0466 121.539 30.9041 122.163 30.6227C122.662 30.3918 123.117 30.0743 123.507 29.6849C123.885 30.076 124.333 30.3928 124.828 30.6189C125.463 30.9041 126.152 31.0479 126.848 31.0403C127.468 31.0687 128.088 30.9699 128.669 30.7499C129.251 30.5298 129.78 30.1933 130.227 29.7609C130.658 29.2983 130.993 28.754 131.211 28.1599C131.429 27.5659 131.525 26.9342 131.495 26.3022V20.1973H128.837L128.856 26.6173Z" fill="#2F765F"/>
<path d="M143.582 21.7654C143.039 21.2556 142.4 20.8582 141.703 20.596C140.278 20.0643 138.709 20.0643 137.284 20.596C136.591 20.8619 135.955 21.2589 135.412 21.7654C134.868 22.2642 134.429 22.867 134.121 23.5384C133.822 24.1937 133.668 24.906 133.669 25.6265C133.668 26.3563 133.82 27.0783 134.117 27.745C134.426 28.418 134.866 29.0222 135.412 29.5218C135.957 30.025 136.592 30.4205 137.284 30.6873C137.986 30.958 138.733 31.0958 139.486 31.0936C140.243 31.0971 140.994 30.962 141.703 30.6949C142.398 30.4325 143.035 30.0365 143.579 29.5294C144.122 29.0364 144.556 28.4351 144.853 27.7642C145.15 27.0933 145.303 26.3677 145.302 25.6341C145.302 24.9122 145.151 24.1982 144.858 23.5384C144.559 22.866 144.125 22.2625 143.582 21.7654V21.7654ZM142.576 25.6075C142.586 26.0127 142.511 26.4155 142.356 26.7901C142.201 27.1646 141.969 27.5028 141.676 27.7829C141.091 28.3548 140.304 28.6749 139.486 28.6749C138.667 28.6749 137.881 28.3548 137.295 27.7829C137.002 27.503 136.77 27.165 136.614 26.7904C136.459 26.4158 136.383 26.013 136.392 25.6075C136.383 25.2043 136.459 24.8037 136.614 24.4316C136.77 24.0595 137.002 23.7242 137.295 23.4473C137.883 22.8778 138.669 22.5594 139.488 22.5594C140.306 22.5594 141.092 22.8778 141.68 23.4473C141.972 23.7251 142.202 24.0608 142.356 24.4328C142.511 24.8048 142.585 25.2049 142.576 25.6075V25.6075Z" fill="#2F765F"/>
<path d="M164.828 23.0293L166.821 20.0831H163.632L162.113 22.3269C161.85 22.7748 161.495 23.1628 161.073 23.4659C160.705 23.6585 160.292 23.7501 159.877 23.7316H159.361V15.4551H156.65V30.8654H159.361V26.2146H161.354C161.859 26.1659 162.364 26.3112 162.766 26.6208C162.921 26.8041 163.037 27.0164 163.108 27.2453C163.179 27.4741 163.203 27.7149 163.18 27.9534V30.8578H165.902V27.7294C165.954 26.8517 165.696 25.9835 165.173 25.2768C164.791 24.8351 164.294 24.5068 163.738 24.3277C163.799 24.2745 163.863 24.2138 163.928 24.1492C164.262 23.805 164.564 23.43 164.828 23.0293V23.0293Z" fill="#2F765F"/>
</svg>
